<svg version="1.1" id="Layer_1" xmlns="http://www.w3.org/2000/svg" xmlns:xlink="http://www.w3.org/1999/xlink" x="0px" y="0px"
	 width="100%" viewBox="0 0 652 603" enable-background="new 0 0 652 603" xml:space="preserve">
<path fill="#FFFFFF" opacity="1.000000" stroke="none" 
	d="
M435.000000,604.000000 
	C290.000061,604.000000 145.500122,604.000000 1.000136,604.000000 
	C1.000090,403.000153 1.000090,202.000290 1.000045,1.000324 
	C218.333084,1.000216 435.666168,1.000216 652.999451,1.000108 
	C652.999634,201.999680 652.999634,402.999359 652.999817,603.999512 
	C580.500000,604.000000 508.000000,604.000000 435.000000,604.000000 
M483.704315,374.702240 
	C523.071228,356.422089 562.438171,338.141876 601.805115,319.861877 
	C613.378235,314.487854 624.951782,309.114594 636.525085,303.741028 
	C635.177490,303.225555 634.063049,303.346008 632.997253,303.641571 
	C612.487610,309.329102 591.992310,315.068481 571.476562,320.733887 
	C537.659180,330.072571 503.829315,339.366150 469.672791,347.994690 
	C415.198853,239.103271 360.724945,130.211853 305.925659,20.670065 
	C304.909210,22.673599 304.319305,23.822159 303.741699,24.976875 
	C264.833466,102.759773 225.911652,180.535843 187.023468,258.328766 
	C154.371933,323.645721 121.759712,388.982300 88.613495,454.704132 
	C87.836197,455.971375 86.955765,457.187378 86.296585,458.513367 
	C65.366547,500.616302 44.457439,542.729614 23.549332,584.843506 
	C23.093094,585.762451 22.685783,586.705688 21.843201,588.531250 
	C132.287888,537.355042 241.704956,486.655029 351.255341,435.893250 
	C356.029480,445.422516 360.502686,454.334686 364.961578,463.253967 
	C385.046997,503.431610 405.104767,543.623047 425.288330,583.751343 
	C426.195251,585.554443 428.153503,587.975952 429.752716,588.078857 
	C435.693787,588.461060 441.689514,587.993347 448.575256,588.275513 
	C495.376953,588.275513 542.178650,588.275513 589.767456,588.275513 
	C553.907288,516.587036 518.518738,445.841492 483.704315,374.702240 
z"/>
<path fill="#010101" opacity="1.000000" stroke="none" 
	d="
M89.130089,454.310211 
	C121.759712,388.982300 154.371933,323.645721 187.023468,258.328766 
	C225.911652,180.535843 264.833466,102.759773 303.741699,24.976875 
	C304.319305,23.822159 304.909210,22.673599 305.925659,20.670065 
	C360.724945,130.211853 415.198853,239.103271 469.526703,348.454956 
	C445.419830,355.610443 421.472565,362.354431 397.493774,368.984589 
	C380.075775,373.800690 362.616150,378.466217 345.053894,382.846863 
	C332.044159,356.758820 319.155609,331.022766 305.862579,304.479065 
	C289.754364,339.339813 274.108887,373.199097 258.201202,407.274231 
	C256.701630,407.944092 255.489212,408.488068 254.223297,408.839081 
	C216.483627,419.304077 178.745026,429.773132 140.991623,440.188507 
	C123.720322,444.953278 106.418228,449.606445 89.130089,454.310211 
z"/>
<path fill="#01B2FE" opacity="1.000000" stroke="none" 
	d="
M345.175079,383.198883 
	C362.616150,378.466217 380.075775,373.800690 397.493774,368.984589 
	C421.472565,362.354431 445.419830,355.610443 469.692688,348.796997 
	C503.829315,339.366150 537.659180,330.072571 571.476562,320.733887 
	C591.992310,315.068481 612.487610,309.329102 632.997253,303.641571 
	C634.063049,303.346008 635.177490,303.225555 636.525085,303.741028 
	C624.951782,309.114594 613.378235,314.487854 601.805115,319.861877 
	C562.438171,338.141876 523.071228,356.422089 483.053497,374.923737 
	C444.312347,392.797272 406.222046,410.449341 367.987488,428.168213 
	C371.887024,436.003418 375.629181,443.541260 379.387573,451.070984 
	C402.144531,496.663269 424.905243,542.253723 447.664734,587.844788 
	C441.689514,587.993347 435.693787,588.461060 429.752716,588.078857 
	C428.153503,587.975952 426.195251,585.554443 425.288330,583.751343 
	C405.104767,543.623047 385.046997,503.431610 364.961578,463.253967 
	C360.502686,454.334686 356.029480,445.422516 351.255341,435.893250 
	C241.704956,486.655029 132.287888,537.355042 21.843201,588.531250 
	C22.685783,586.705688 23.093094,585.762451 23.549332,584.843506 
	C44.457439,542.729614 65.366547,500.616302 86.296585,458.513367 
	C86.955765,457.187378 87.836197,455.971375 88.871796,454.507172 
	C106.418228,449.606445 123.720322,444.953278 140.991623,440.188507 
	C178.745026,429.773132 216.483627,419.304077 254.223297,408.839081 
	C255.489212,408.488068 256.701630,407.944092 258.639343,407.318481 
	C268.156555,404.773956 276.995331,402.479156 285.785828,400.012207 
	C305.594940,394.452972 325.380157,388.808624 345.175079,383.198883 
z"/>
<path fill="#000000" opacity="1.000000" stroke="none" 
	d="
M448.119995,588.060181 
	C424.905243,542.253723 402.144531,496.663269 379.387573,451.070984 
	C375.629181,443.541260 371.887024,436.003418 367.987488,428.168213 
	C406.222046,410.449341 444.312347,392.797272 482.766479,375.120605 
	C518.518738,445.841492 553.907288,516.587036 589.767456,588.275513 
	C542.178650,588.275513 495.376953,588.275513 448.119995,588.060181 
z"/>
<path fill="#FDFEFE" opacity="1.000000" stroke="none" 
	d="
M345.053894,382.846863 
	C325.380157,388.808624 305.594940,394.452972 285.785828,400.012207 
	C276.995331,402.479156 268.156555,404.773956 258.901550,407.102631 
	C274.108887,373.199097 289.754364,339.339813 305.862579,304.479065 
	C319.155609,331.022766 332.044159,356.758820 345.053894,382.846863 
z"/>
</svg>